<?xml version="1.0" encoding="UTF-8"?>
<svg width="256px" height="256px" viewBox="0 0 256 256" version="1.1" xmlns="http://www.w3.org/2000/svg">
    <g stroke="none" stroke-width="1" fill="none" fill-rule="evenodd">
        <path d="M251.172245,116.593517 L139.398454,4.82845302 C132.966146,-1.60948434 122.563152,-1.60948434 116.130845,4.82845302 L92.8622088,28.0970865 L122.553067,57.7878644 C129.314699,55.7705797 137.041277,57.1524561 142.620068,62.7312467 C148.218286,68.3294363 149.593831,76.0983893 147.557537,82.8723525 L176.017352,111.332168 C182.791315,109.295874 190.560268,110.671419 196.157458,116.270636 C204.054444,124.167623 204.054444,137.073059 196.157458,144.971517 C188.259,152.869975 175.353564,152.869975 167.455106,144.971517 C161.600785,139.117196 160.327595,130.877895 162.956435,123.857395 L136.246723,97.1476821 L136.246723,176.474018 C138.346069,177.521325 140.310597,178.962798 142.620068,181.27227 C150.517554,189.169256 150.517554,202.074692 142.620068,210.174622 C134.72161,218.072108 121.816174,218.072108 113.920659,210.174622 C106.023173,202.074692 106.023173,189.169256 113.920659,181.27227 C116.613783,178.579146 119.81407,176.912832 123.205994,176.006435 L123.205994,95.8906323 C119.814071,94.9842357 116.614756,93.3179219 113.920659,90.6237699 C107.996272,84.6993834 106.762451,76.3139131 109.488997,69.2732052 L80.3127268,40.0969348 L4.83125921,115.578032 C-1.60375306,122.01034 -1.60375306,132.413334 4.83125921,138.845641 L116.604082,250.617176 C123.036389,257.054664 133.439383,257.054664 139.87169,250.617176 L251.172245,139.31818 C257.60854,132.885874 257.60854,122.482879 251.172245,116.593517 Z" fill="#FFFFFF"/>
    </g>
</svg> 