<?xml version="1.0" encoding="UTF-8"?>
<svg width="256px" height="256px" viewBox="0 0 256 256" version="1.1" xmlns="http://www.w3.org/2000/svg">
    <g stroke="none" stroke-width="1" fill="none" fill-rule="evenodd">
        <path d="M218.352941,0 C239.529412,0 256,16.4705882 256,37.6470588 C256,58.8235294 239.529412,75.2941176 218.352941,75.2941176 C197.176471,75.2941176 180.705882,58.8235294 180.705882,37.6470588 C180.705882,16.4705882 197.176471,0 218.352941,0 Z" fill="#FFFFFF"/>
        <path d="M0,37.6470588 L75.2941176,37.6470588 L75.2941176,112.941176 L0,112.941176 L0,37.6470588 Z M90.3529412,37.6470588 L165.647059,37.6470588 L165.647059,112.941176 L90.3529412,112.941176 L90.3529412,37.6470588 Z M0,128 L75.2941176,128 L75.2941176,203.294118 L0,203.294118 L0,128 Z M90.3529412,128 L165.647059,128 L165.647059,203.294118 L90.3529412,203.294118 L90.3529412,128 Z M180.705882,128 L256,128 L256,203.294118 L180.705882,203.294118 L180.705882,128 Z" fill="#FFFFFF"/>
    </g>
</svg> 