<?xml version="1.0" encoding="UTF-8"?>
<svg width="256px" height="256px" viewBox="0 0 256 256" version="1.1" xmlns="http://www.w3.org/2000/svg">
    <g stroke="none" stroke-width="1" fill="none" fill-rule="evenodd">
        <path d="M128,0 C198.692448,0 256,57.307552 256,128 C256,198.692448 198.692448,256 128,256 C57.307552,256 0,198.692448 0,128 C0,57.307552 57.307552,0 128,0 Z M128,32 C75.072054,32 32,75.072054 32,128 C32,180.927946 75.072054,224 128,224 C180.927946,224 224,180.927946 224,128 C224,75.072054 180.927946,32 128,32 Z" fill="#FFFFFF"/>
        <path d="M128,64 C163.346224,64 192,92.653776 192,128 C192,163.346224 163.346224,192 128,192 C92.653776,192 64,163.346224 64,128 C64,92.653776 92.653776,64 128,64 Z M128,96 C110.326888,96 96,110.326888 96,128 C96,145.673112 110.326888,160 128,160 C145.673112,160 160,145.673112 160,128 C160,110.326888 145.673112,96 128,96 Z" fill="#FFFFFF"/>
    </g>
</svg> 