<svg role="img" viewBox="0 0 24 24" xmlns="http://www.w3.org/2000/svg">
  <title>scikit-learn</title>
  <path fill="#F7931E" d="M15.601 5.53c-1.91.035-3.981.91-5.63 2.56-2.93 2.93-2.083 8.53-1.533 9.723.137.297.375.424.697.424.957 0 1.997-1.07 2.843-1.917 1.955-1.954 3.627-5.289 3.627-8.083C15.605 7.03 15.604 5.895 15.601 5.53zM14.9 7.367c-.17.207-.99 1.243-1.133 1.433-.24.32-.51.63-.67.87-.46.68-.88 1.39-1.23 2.13-.34.67-.63 1.37-.86 2.08-.05.18-.12.35-.16.53-.09.4-.16.81-.24 1.21-.03.13-.05.26-.07.4-.04.27-.04.55-.05.82-.01.27.01.55.02.82.01.41.04.82.11 1.22.05.31-.24.61-.58.47-.14-.06-.27-.15-.39-.25-.14-.13-.29-.26-.4-.42-.23-.33-.38-.71-.52-1.09-.26-.75-.43-1.54-.49-2.32-.04-.46-.05-.93-.05-1.4.01-.5.05-.99.11-1.48.1-.72.26-1.44.48-2.14.22-.68.5-1.33.82-1.96.3-.59.65-1.16 1.02-1.71.34-.48.72-.93 1.09-1.39.35-.42.71-.83 1.08-1.23.31-.33.63-.64.95-.95.05-.05.1-.1.16-.15C14.93 2.5 15.96 2.11 17 2.18c1.27.08 2.23.99 2.032 2.07C18.85 5.09 18.23 5.78 17.65 6.41c-.25.27-.51.54-.78.79-.46.43-.94.84-1.43 1.23-.12.1-.25.19-.37.28C15 8.76 14.97 7.4 14.9 7.37zM9.27 18.03c-.33.48-.72.93-1.09 1.39-.35.42-.71.83-1.08 1.23-.31.33-.63.64-.95.95-.05.05-.1.1-.16.15C5.07 21.5 4.04 21.89 3 21.82c-1.27-.08-2.23-.99-2.032-2.07C1.15 18.91 1.77 18.22 2.35 17.59c.25-.27.51-.54.78-.79.46-.43.94-.84 1.43-1.23.12-.1.25-.19.37-.28C5 15.24 5.03 16.6 5.1 16.63c.17-.21.99-1.243 1.133-1.433.24-.32.51-.63.67-.87.46-.68.88-1.39 1.23-2.13.34-.67.63-1.37.86-2.08.05-.18.12-.35.16-.53.09-.4.16-.81.24-1.21.03-.13.05-.26.07-.4.04-.27.04-.55.05-.82.01-.27-.01-.55-.02-.82-.01-.41-.04-.82-.11-1.22-.05-.31.24-.61.58-.47.14.06.27.15.39.25.14.13.29.26.4.42.23.33.38.71.52 1.09.26.75.43 1.54.49 2.32.04.46.05.93.05 1.4-.01.5-.05.99-.11 1.48-.1.72-.26 1.44-.48 2.14-.22.68-.5 1.33-.82 1.96-.3.59-.65 1.16-1.02 1.71z"/>
</svg>
