<?xml version="1.0" encoding="UTF-8"?>
<svg width="256px" height="256px" viewBox="0 0 256 256" version="1.1" xmlns="http://www.w3.org/2000/svg">
    <g stroke="none" stroke-width="1" fill="none" fill-rule="evenodd">
        <path d="M128,0 C198.692448,0 256,28.653776 256,64 L256,192 C256,227.346224 198.692448,256 128,256 C57.307552,256 0,227.346224 0,192 L0,64 C0,28.653776 57.307552,0 128,0 Z M128,32 C75.072054,32 32,46.326888 32,64 C32,81.673112 75.072054,96 128,96 C180.927946,96 224,81.673112 224,64 C224,46.326888 180.927946,32 128,32 Z M32,96 L32,192 C32,209.673112 75.072054,224 128,224 C180.927946,224 224,209.673112 224,192 L224,96 C224,113.673112 180.927946,128 128,128 C75.072054,128 32,113.673112 32,96 Z" fill="#FFFFFF"/>
    </g>
</svg> 