<?xml version="1.0" encoding="UTF-8"?>
<svg width="256px" height="256px" viewBox="0 0 256 256" version="1.1" xmlns="http://www.w3.org/2000/svg">
    <g stroke="none" stroke-width="1" fill="none" fill-rule="evenodd">
        <path d="M72.4,205.3 L56.6,213.3 C54.4,214.6 51.7,214.1 50,212.1 L18.1,174.3 C16.8,172.8 16.4,170.7 17.1,168.8 L32.9,130.5 C33.8,128.1 36.2,126.7 38.7,127.2 L72.4,134.5 C75.4,135.1 77.3,138.1 76.7,141.1 L67.8,198.7 C67.2,201.7 64.2,203.6 61.2,203 L72.4,205.3 Z" fill="#FFFFFF"/>
        <path d="M237.9,174.3 L206,212.1 C204.3,214.1 201.6,214.6 199.4,213.3 L183.6,205.3 L194.8,203 C191.8,203.6 188.8,201.7 188.2,198.7 L179.3,141.1 C178.7,138.1 180.6,135.1 183.6,134.5 L217.3,127.2 C219.8,126.7 222.2,128.1 223.1,130.5 L238.9,168.8 C239.6,170.7 239.2,172.8 237.9,174.3 Z" fill="#FFFFFF"/>
        <path d="M183.6,134.5 L72.4,134.5 C69.1,134.5 66.4,131.8 66.4,128.5 L66.4,51.2 C66.4,47.9 69.1,45.2 72.4,45.2 L183.6,45.2 C186.9,45.2 189.6,47.9 189.6,51.2 L189.6,128.5 C189.6,131.8 186.9,134.5 183.6,134.5 Z" fill="#FFFFFF"/>
    </g>
</svg> 