<?xml version="1.0" encoding="UTF-8"?>
<svg width="256px" height="256px" viewBox="0 0 256 256" version="1.1" xmlns="http://www.w3.org/2000/svg">
    <g stroke="none" stroke-width="1" fill="none" fill-rule="evenodd">
        <path d="M128,0 C198.692448,0 256,57.307552 256,128 C256,198.692448 198.692448,256 128,256 C57.307552,256 0,198.692448 0,128 C0,57.307552 57.307552,0 128,0 Z M180,96 L156,96 L156,72 L180,72 L180,96 Z M132,96 L108,96 L108,72 L132,72 L132,96 Z M84,96 L60,96 L60,72 L84,72 L84,96 Z M156,120 L132,120 L132,96 L156,96 L156,120 Z M108,120 L84,120 L84,96 L108,96 L108,120 Z M60,120 L36,120 L36,96 L60,96 L60,120 Z M204,120 L180,120 L180,96 L204,96 L204,120 Z M156,144 L132,144 L132,120 L156,120 L156,144 Z M108,144 L84,144 L84,120 L108,120 L108,144 Z M60,144 L36,144 L36,120 L60,120 L60,144 Z M204,144 L180,144 L180,120 L204,120 L204,144 Z" fill="#FFFFFF"/>
    </g>
</svg> 