<?xml version="1.0" encoding="UTF-8"?>
<svg width="256px" height="256px" viewBox="0 0 256 256" version="1.1" xmlns="http://www.w3.org/2000/svg">
    <g stroke="none" stroke-width="1" fill="none" fill-rule="evenodd">
        <path d="M82.5539491,180.7 C82.5539491,180.7 69.35735111,188.9 93.2296946,190.5 C121.6,192.4 134.7,192.1 162.7,187.8 C162.7,187.8 171.1,193.1 182.4,197.5 C115.5,226.3 31.9,196.8 82.5539491,180.7" fill="#FFFFFF"/>
        <path d="M74.2519844,155.5 C74.2519844,155.5 59.9,166.2 83.8,167.5 C115.1,169.2 136.5,169.4 174.5,163.8 C174.5,163.8 180.3,169.8 189.3,173.1 C110.1,198.5 21.5,175.9 74.2519844,155.5" fill="#FFFFFF"/>
        <path d="M143.9,111.2 C157.6,127.8 137.2,142.5 137.2,142.5 C137.2,142.5 180.2,120.7 164.2,95.5 C149.2,71.8 137.2,60.5 189.2,37.5 C189.2,37.5 81.2,54.5 143.9,111.2" fill="#FFFFFF"/>
        <path d="M233.7,190.1 C233.7,190.1 245.1,199.8 222.7,207.1 C184.2,219.8 59.9,223.1 26.4,207.5 C15.8,202.6 40.8,193.8 46.8,192.4 C53.1,190.9 56.9,191.2 56.9,191.2 C44.9,182.8 -13.1,210.7 17.9,218.4 C123.9,242.4 211.9,206.8 233.7,190.1" fill="#FFFFFF"/>
        <path d="M88.9,130.9 C88.9,130.9 19.9,144.6 54.9,149.4 C71.9,151.7 106.1,151.4 138.1,149.2 C164.1,147.4 190.2,143.7 190.2,143.7 C190.2,143.7 182.1,147.1 176.1,150.9 C115.1,164.6 -0.1,159.4 27.9,145.4 C51.1,133.8 88.9,130.9 88.9,130.9" fill="#FFFFFF"/>
        <path d="M201.1,253.3 C262.1,222.3 233.3,193.3 214.3,197.3 C209.9,198.3 207.9,199.2 207.9,199.2 C207.9,199.2 209.3,197.2 212.3,196.2 C255.3,181.2 286.9,231.1 200.1,254.3 C200.1,254.3 200.9,253.8 201.1,253.3" fill="#FFFFFF"/>
        <path d="M162.1,0 C162.1,0 198.5,36.4 128.9,92.4 C73.3,137.4 118.5,160.4 128.9,183.4 C103.9,160.4 86.9,140.4 98.9,121.4 C116.9,92.4 176.1,71.4 162.1,0" fill="#FFFFFF"/>
        <path d="M95,344.5 C154,348.5 249.6,342.1 251,315.1 C251,315.1 246,325.1 200,333.1 C147,342.1 83,340.9 47,335.1 C47,335.1 54,341.1 95,344.5" fill="#FFFFFF"/>
    </g>
</svg> 