<?xml version="1.0" encoding="UTF-8"?>
<svg width="256px" height="256px" viewBox="0 0 256 256" version="1.1" xmlns="http://www.w3.org/2000/svg">
    <g stroke="none" stroke-width="1" fill="none" fill-rule="evenodd">
        <path d="M127.8,0 C62.3,0 66.4,28.8 66.4,28.8 L66.5,58.8 L128.7,58.8 L128.7,66.9 L41.9,66.9 C41.9,66.9 0,63.3 0,128.4 C0,193.5 36.5,191.3 36.5,191.3 L58.2,191.3 L58.2,160.2 C58.2,160.2 57.1,123.8 93.9,123.8 L155.8,123.8 C155.8,123.8 190.8,124.1 190.8,89.8 L190.8,33.9 C190.8,33.9 196.3,0 127.8,0 Z M93.6,19.4 C98.8,19.4 103,23.6 103,28.8 C103,34 98.8,38.2 93.6,38.2 C88.4,38.2 84.2,34 84.2,28.8 C84.2,23.6 88.4,19.4 93.6,19.4 Z" fill="#FFFFFF"/>
        <path d="M128.2,256 C193.7,256 189.6,227.2 189.6,227.2 L189.5,197.2 L127.3,197.2 L127.3,189.1 L214.1,189.1 C214.1,189.1 256,192.7 256,127.6 C256,62.5 219.5,64.7 219.5,64.7 L197.8,64.7 L197.8,95.8 C197.8,95.8 198.9,132.2 162.1,132.2 L100.2,132.2 C100.2,132.2 65.2,131.9 65.2,166.2 L65.2,222.1 C65.2,222.1 59.7,256 128.2,256 Z M162.4,236.6 C157.2,236.6 153,232.4 153,227.2 C153,222 157.2,217.8 162.4,217.8 C167.6,217.8 171.8,222 171.8,227.2 C171.8,232.4 167.6,236.6 162.4,236.6 Z" fill="#FFFFFF"/>
    </g>
</svg> 