<svg role="img" viewBox="0 0 24 24" xmlns="http://www.w3.org/2000/svg">
  <title>scikit-learn</title>
  <path fill="#F7931E" d="M15.601 5.53c-1.91.035-3.981.91-5.63 2.56-2.93 2.93-2.93 7.68 0 10.61 2.93 2.93 7.68 2.93 10.61 0 2.93-2.93 2.93-7.68 0-10.61-1.465-1.465-3.385-2.195-4.98-2.56zm4.07 1.51c2.509 2.509 2.509 6.582 0 9.09-2.509 2.509-6.582 2.509-9.09 0-2.509-2.509-2.509-6.582 0-9.09 2.509-2.509 6.582-2.509 9.09 0z"/>
  <path fill="#F7931E" d="M8.37 6.37c1.465-1.465 3.385-2.195 4.98-2.56-2.456-.366-5.147.349-7.07 2.27-2.93 2.93-2.93 7.68 0 10.61 1.465 1.465 3.385 2.195 4.98 2.56-2.456.366-5.147-.349-7.07-2.27-2.93-2.93-2.93-7.68 0-10.61z"/>
  <path fill="#F7931E" d="M14.321 1.6a1.37 1.37 0 11-2.74 0 1.37 1.37 0 012.74 0zM19.271 3.22a1.37 1.37 0 11-2.74 0 1.37 1.37 0 012.74 0zM21.901 7.68a1.37 1.37 0 11-2.74 0 1.37 1.37 0 012.74 0zM20.791 12.63a1.37 1.37 0 11-2.74 0 1.37 1.37 0 012.74 0zM16.831 15.75a1.37 1.37 0 11-2.74 0 1.37 1.37 0 012.74 0zM11.881 15.75a1.37 1.37 0 11-2.74 0 1.37 1.37 0 012.74 0zM8.241 12.63a1.37 1.37 0 11-2.74 0 1.37 1.37 0 012.74 0zM7.131 7.68a1.37 1.37 0 11-2.74 0 1.37 1.37 0 012.74 0zM9.761 3.22a1.37 1.37 0 11-2.74 0 1.37 1.37 0 012.74 0z"/>
</svg>
